<svg width="278" height="50" viewBox="0 0 278 50" fill="none" xmlns="http://www.w3.org/2000/svg">
<rect x="0.45625" y="0.05" width="49.9" height="49.9" rx="24.95" fill="#A8FF70"/>
<rect x="0.45625" y="0.05" width="49.9" height="49.9" rx="24.95" stroke="#4ABD00" stroke-width="0.1"/>
<path d="M39.2314 23.0078L45.1898 17.0494C42.0382 9.21439 34.3683 3.68213 25.4055 3.68213C22.5525 3.68213 19.8313 4.24348 17.3445 5.26094L8.21223 14.3932C5.17868 17.4268 5.17868 20.5913 8.21223 23.6248L11.5795 26.9921L5.62109 32.9505C8.77273 40.7855 16.4426 46.3178 25.4055 46.3178C28.2584 46.3178 30.9796 45.7564 33.4664 44.739L42.5987 35.6067C45.6322 32.5731 45.6322 29.4086 42.5987 26.3751L39.2314 23.0078Z" fill="#7000FF"/>
<path d="M27.4638 12.8896C26.2187 12.7347 24.5946 12.7347 23.3495 12.8896V22.5268H27.4638V12.8896ZM32.504 17.3642V26.0207C32.504 30.9308 30.2389 34.4633 25.4067 34.4633C20.5744 34.4633 18.3093 30.9308 18.3093 26.0207V17.3642C16.6979 17.6543 15.1448 18.0462 13.6875 18.5408V25.5928C13.6875 32.5216 19.3909 37.2264 25.4067 37.2264C31.4224 37.2264 37.1258 32.5216 37.1258 25.5928V18.5408C35.6694 18.0462 34.1154 17.6543 32.504 17.3642Z" fill="white"/>
<path d="M118.921 27.3155C118.921 30.1437 117.32 31.4553 114.941 31.4553C112.562 31.4553 111.017 30.1722 111.017 27.3155V17.9687H105.884V27.4931C105.884 33.7028 111.073 36.1278 114.978 36.1278C118.884 36.1278 124.082 33.693 124.082 27.4931V17.9687H118.949L118.921 27.3155Z" fill="#7000FF"/>
<path d="M101.54 22.3047V17.9687H84.8501V22.3047H94.7306L84.4567 31.4642V35.8002H102.167V31.4642H91.2844L101.54 22.3047Z" fill="#7000FF"/>
<path d="M75.9435 27.3155C75.9435 30.1437 74.3416 31.4553 71.9823 31.4553C69.6229 31.4553 68.0397 30.1722 68.0397 27.3155V17.9687H62.9062V27.4931C62.9062 33.7028 68.0761 36.1278 72 36.1278C75.924 36.1278 81.0849 33.693 81.0849 27.4931V17.9687H75.9524L75.9435 27.3155Z" fill="#7000FF"/>
<path d="M212.382 29.4707V17.8941H207.297L207.324 20.7134C206.22 19.0556 204.281 17.5389 200.825 17.5389C194.887 17.5389 191.843 22.1653 191.843 26.7828C191.731 31.466 195.178 36.1296 200.582 36.1296C203.447 36.1296 206.042 34.8465 207.297 32.6363C207.587 33.5634 208.187 34.3785 208.982 34.9308C209.788 35.4929 210.743 35.7647 211.727 35.7176H214.667V31.4002H213.853C212.841 31.4002 212.382 31.0255 212.382 29.4707ZM201.902 31.6613C198.999 31.6613 196.797 29.6474 196.797 26.8192C196.797 23.991 198.999 22.0525 201.902 22.0525C204.806 22.0525 207.091 24.0096 207.091 26.8192C207.091 29.6287 204.918 31.6613 201.902 31.6613Z" fill="#7000FF"/>
<path d="M179.096 36.1287C172.944 36.1287 168.56 33.225 168.56 26.1451V12.3682H173.692V19.7579C175.163 18.3061 177.121 17.5948 179.939 17.5948C186.074 17.5948 189.492 21.7816 189.492 26.8484C189.492 32.8893 184.763 36.1287 179.096 36.1287ZM179.041 22.0054C176.118 22.0054 173.908 24.0193 173.908 26.8475C173.908 29.6757 176.108 31.6142 179.041 31.6142C181.973 31.6142 184.229 29.6376 184.229 26.8475C184.229 24.0575 182.056 22.0054 179.041 22.0054Z" fill="#7000FF"/>
<path d="M246.529 35.7354V26.9977L254.518 35.7354H260.587L252.308 26.5759L259.95 17.903H253.928L246.538 26.2571V12.3869H241.406V35.7354H246.529Z" fill="#7000FF"/>
<path d="M218.358 17.9028H223.518V21.1057H223.799C224.108 20.5063 224.548 19.9727 225.12 19.5038C225.597 19.1104 226.243 18.7357 227.058 18.3894C227.873 18.052 228.922 17.8646 230.224 17.8646C231.272 17.8646 232.246 18.0147 233.165 18.305C234.082 18.5954 234.869 19.0634 235.552 19.6814C236.236 20.2994 236.761 21.1146 237.136 22.0603C237.51 23.0158 237.707 24.1586 237.707 25.4879V35.7059H232.565V26.9397C232.565 25.4133 232.153 24.2803 231.319 23.5308C230.486 22.7813 229.39 22.4164 228.032 22.4164C226.533 22.4164 225.41 22.8471 224.642 23.6897C223.884 24.5324 223.499 25.6193 223.499 26.9397V35.7059H218.358V17.9028Z" fill="#7000FF"/>
<path d="M157.925 25.4516C157.925 21.1245 155.069 17.6312 149.581 17.6312C146.79 17.6312 144.102 18.9516 142.866 20.9655C141.63 18.9516 138.942 17.6312 136.151 17.6312C130.662 17.6312 127.807 21.1245 127.807 25.4516V35.8099H132.939V26.098C132.939 23.6161 134.543 22.286 136.62 22.286C138.697 22.286 140.301 23.6161 140.301 26.098V35.8099H145.434V26.098C145.434 23.6161 147.038 22.286 149.115 22.286C151.192 22.286 152.795 23.6161 152.795 26.098V35.8099H157.928L157.925 25.4516Z" fill="#7000FF"/>
</svg>
